<?xml version="1.0" encoding="utf-8"?>
<!-- Generator: Adobe Illustrator 25.0.1, SVG Export Plug-In . SVG Version: 6.00 Build 0)  -->
<svg version="1.1" xmlns="http://www.w3.org/2000/svg" xmlns:xlink="http://www.w3.org/1999/xlink" x="0px" y="0px"
	 viewBox="0 0 200 200" style="enable-background:new 0 0 200 200;" xml:space="preserve">
<style type="text/css">
	.st0{display:none;}
	.st1{fill:url(#SVGID_1_);}
	.st2{fill:url(#SVGID_2_);}
	.st3{fill:url(#SVGID_3_);}
	.st4{fill:url(#SVGID_4_);}
	.st5{fill:url(#SVGID_5_);}
	.st6{fill:url(#SVGID_6_);}
	.st7{fill:url(#SVGID_7_);}
	.st8{fill:url(#SVGID_8_);}
	.st9{fill:url(#SVGID_9_);}
	.st10{fill:url(#SVGID_10_);}
	.st11{fill:url(#SVGID_11_);}
	.st12{fill:url(#SVGID_12_);}
	.st13{fill:url(#SVGID_13_);}
	.st14{fill:url(#SVGID_14_);}
	.st15{fill:url(#SVGID_15_);}
	.st16{fill:url(#SVGID_16_);}
	.st17{fill:url(#SVGID_17_);}
	.st18{fill:url(#SVGID_18_);}
	.st19{fill:url(#SVGID_19_);}
	.st20{fill:url(#SVGID_20_);}
	.st21{fill:url(#SVGID_21_);}
	.st22{fill:url(#SVGID_22_);}
	.st23{fill:url(#SVGID_23_);}
	.st24{fill:url(#SVGID_24_);}
	.st25{fill:url(#SVGID_25_);}
	.st26{fill:url(#SVGID_26_);}
	.st27{fill:url(#SVGID_27_);}
	.st28{fill:url(#SVGID_28_);}
	.st29{fill:url(#SVGID_29_);}
	.st30{fill:url(#SVGID_30_);}
	.st31{fill:url(#SVGID_31_);}
	.st32{fill:url(#SVGID_32_);}
	.st33{fill:url(#SVGID_33_);}
	.st34{fill:url(#SVGID_34_);}
	.st35{fill:url(#SVGID_35_);}
	.st36{fill:url(#SVGID_36_);}
	.st37{fill:url(#SVGID_37_);}
	.st38{fill:url(#SVGID_38_);}
	.st39{fill:url(#SVGID_39_);}
	.st40{fill:url(#SVGID_40_);}
	.st41{fill:url(#SVGID_41_);}
	.st42{fill:url(#SVGID_42_);}
	.st43{fill:url(#SVGID_43_);}
	.st44{fill:url(#SVGID_44_);}
	.st45{fill:url(#SVGID_45_);}
	.st46{fill:url(#SVGID_46_);}
	.st47{fill:url(#SVGID_47_);}
	.st48{fill-rule:evenodd;clip-rule:evenodd;fill:#F0CA30;}
	.st49{fill:none;stroke:#F0CA30;stroke-width:0.1217;stroke-miterlimit:2.6131;}
	.st50{fill-rule:evenodd;clip-rule:evenodd;fill:#FFFFFF;}
	.st51{fill:none;stroke:#F0CA30;stroke-width:1.6903;stroke-miterlimit:2.6131;}
	.st52{fill:#F0CA30;}
	.st53{fill-rule:evenodd;clip-rule:evenodd;fill:#620000;}
	.st54{fill:none;stroke:#F0CA30;stroke-width:2.2538;stroke-linecap:round;stroke-linejoin:round;stroke-miterlimit:2.6131;}
	.st55{fill:#FFFFFF;}
</style>
<g id="BACKGROUND" class="st0">
</g>
<g id="OBJECTS">
	<g>
		<path class="st48" d="M82.22,23.92c2.58-1.13,6.52-3.24,9.18-4.63c11.08-5.81,7.22-6.34,18.88,0c3.13,1.7,6.19,3.03,9.12,4.79
			l0.04,51.23c0,8.69-0.59,39.54,0.18,46.44l2.55,1.04c0.85-16.61-0.55-32.9,0.2-50.11c3.79-1.44,17.29-9.39,18.75-9.31
			c0.08,0,16.94,8.36,18.55,9.76c0.1,9.02-0.22,20.93-0.15,32.18c0.02,3.16,2.07-10.78,2.85,0.57l-0.04-34.59
			c-3.29-1.42-7.06-3.54-10.72-5.39c-14.41-7.28-7.74-6.67-20.19-0.65c-2.52,1.22-6.14,3.53-9.14,4.46l-0.04-46.95
			c-2.32-1.98-19.24-9.56-20.95-11.28c-3.61,1.23-7.39,3.56-11.02,5.5l-10.87,5.39l-0.01,31.75c-2.13-0.66-6.67-3.32-9.4-4.65
			c-11.44-5.58-6.97-5.88-15.05-1.8l-15.65,7.98l0.18,72.52l2.56-70.68c0.1-0.08,0.22-0.21,0.3-0.26l13.75-7.26
			c6.27-3.26,3.25-3.08,14.32,2.57c2.98,1.52,6.11,3.48,8.97,4.46C79.52,81.23,81.15,90.19,82.22,23.92z"/>
		<path class="st49" d="M82.22,23.92c2.58-1.13,6.52-3.24,9.18-4.63c11.08-5.81,7.22-6.34,18.88,0c3.13,1.7,6.19,3.03,9.12,4.79
			l0.04,51.23c0,8.69-0.59,39.54,0.18,46.44l2.55,1.04c0.85-16.61-0.55-32.9,0.2-50.11c3.79-1.44,17.29-9.39,18.75-9.31
			c0.08,0,16.94,8.36,18.55,9.76c0.1,9.02-0.22,20.93-0.15,32.18c0.02,3.16,2.07-10.78,2.85,0.57l-0.04-34.59
			c-3.29-1.42-7.06-3.54-10.72-5.39c-14.41-7.28-7.74-6.67-20.19-0.65c-2.52,1.22-6.14,3.53-9.14,4.46l-0.04-46.95
			c-2.32-1.98-19.24-9.56-20.95-11.28c-3.61,1.23-7.39,3.56-11.02,5.5l-10.87,5.39l-0.01,31.75c-2.13-0.66-6.67-3.32-9.4-4.65
			c-11.44-5.58-6.97-5.88-15.05-1.8l-15.65,7.98l0.18,72.52l2.56-70.68c0.1-0.08,0.22-0.21,0.3-0.26l13.75-7.26
			c6.27-3.26,3.25-3.08,14.32,2.57c2.98,1.52,6.11,3.48,8.97,4.46C79.52,81.23,81.15,90.19,82.22,23.92z"/>
		<polygon class="st48" points="57.54,167.49 58.91,56.23 56.17,58.45 		"/>
		<polygon class="st48" points="52.14,168.07 53.51,60.35 50.76,62.53 		"/>
		<polygon class="st48" points="62.9,165.62 61.52,57.9 64.27,60.08 		"/>
		<polygon class="st48" points="46.56,168.07 47.93,64.93 45.19,67.01 		"/>
		<polygon class="st48" points="89.33,70.22 90.7,29.26 87.95,30.09 		"/>
		<polygon class="st48" points="68.47,165.62 67.1,62.48 69.84,64.56 		"/>
		<path class="st50" d="M95.25,144.35c19.12-1.47,38.58-0.28,52.66,3.11c14.69,3.54,23.7,9.31,22.84,16.26
			c-0.86,6.91-11.25,13.3-26.66,17.87c-14.63,4.34-33.43,6.92-52.61,6.92c-17.98,0-33.15-2.27-43.5-5.85
			c-9.99-3.45-15.84-8.23-15.55-13.66c0.3-5.45,6.77-10.78,17.36-15.11C60.84,149.37,76.13,145.83,95.25,144.35z"/>
		<path class="st51" d="M95.25,144.35c19.12-1.47,38.58-0.28,52.66,3.11c14.69,3.54,23.7,9.31,22.84,16.26
			c-0.86,6.91-11.25,13.3-26.66,17.87c-14.63,4.34-33.43,6.92-52.61,6.92c-17.98,0-33.15-2.27-43.5-5.85
			c-9.99-3.45-15.84-8.23-15.55-13.66c0.3-5.45,6.77-10.78,17.36-15.11C60.84,149.37,76.13,145.83,95.25,144.35z"/>
		<path class="st52" d="M86.81,87.44c-5.03-2.54-9.81-3.59-14.34-3.27c-4.24,0.3-8.41,1.82-12.48,4.39
			c-6.43,4.06-11.18,9.65-14.58,16.68c-3.16,6.55-4.66,13.32-4.64,20.6c0.02,7.23,1.51,12.73,4.61,16.69
			c3.29,4.2,7.9,6.11,14.21,5.45c4.09-0.43,8.49-1.96,13.25-4.71c5.16-2.99,10.76-7.45,16.92-13.61
			c-0.87,10.64-1.72,21.06-2.55,31.29c-5.06,3.16-10.11,5.32-15.18,6.6c-4.69,1.19-9.18,1.57-13.5,1.22
			c-4.29-0.35-8.11-1.42-11.52-3.16c-3.18-1.62-5.96-3.83-8.36-6.56c-3.21-3.64-5.55-7.89-7.12-12.84
			c-1.52-4.78-2.28-10.09-2.33-16.04c-0.04-5.16,0.45-10.27,1.5-15.42c1.1-5.33,2.77-10.64,5.09-15.98
			c2.48-5.69,5.54-11.09,9.31-16.28c4.08-5.61,8.76-10.69,14.19-15.17c4.72-3.89,9.57-7.06,14.59-9.41
			c5.44-2.55,11.06-4.1,16.83-4.52C89.4,65.03,88.09,76.39,86.81,87.44"/>
		<polygon class="st48" points="100.31,131.83 101.68,20.56 98.94,22.79 		"/>
		<polygon class="st48" points="94.9,132.41 96.27,24.69 93.53,26.87 		"/>
		<polygon class="st48" points="105.66,129.96 104.29,22.24 107.03,24.42 		"/>
		<path class="st53" d="M140.94,81.08l-0.84,69.69c3.31,1.36,6.49,2.68,9.55,3.96c0.03-15.24,0.27-32.14,0.27-39.09l-0.02-33.12
			L140.94,81.08z"/>
		<polygon class="st48" points="128.82,128.91 130.19,76.45 127.45,77.51 		"/>
		<polygon class="st48" points="139.8,159.9 141.17,68.62 138.43,70.45 		"/>
		<polygon class="st48" points="134.4,160.38 135.77,72 133.03,73.79 		"/>
		<polygon class="st48" points="145.16,158.37 143.79,69.99 146.53,71.78 		"/>
		<polygon class="st48" points="150.73,158.37 149.36,73.74 152.11,75.46 		"/>
		<polygon class="st48" points="111.24,129.96 109.87,26.81 112.61,28.9 		"/>
		<path class="st54" d="M145.12,160.38c0-6.73-0.01-13.41-0.01-20c0-6.53-0.01-12.98-0.02-19.38c0-3.17,0-6.33-0.01-9.46
			c0-3.12-0.01-6.23-0.01-9.32c0-3.07,0-6.12-0.01-9.17c0-3.02,0-6.03,0-9.07c0.81,0.51,1.61,1,2.4,1.45
			c0.8,0.46,1.59,0.94,2.37,1.39c0.78,0.45,1.57,0.89,2.32,1.33c0.77,0.44,1.53,0.88,2.28,1.31c1.36,0.8,2.68,1.56,3.97,2.31
			c1.31,0.77,2.59,1.5,3.83,2.23c0.06,4.14,0.13,8.3,0.19,12.49c-0.76-0.32-1.54-0.66-2.33-0.99c-0.79-0.33-1.6-0.68-2.41-1.04
			c-0.85-0.37-1.72-0.77-2.62-1.14c-0.88-0.37-1.77-0.76-2.68-1.15c0.03,4.15,0.06,8.31,0.09,12.5c0.79,0.25,1.57,0.5,2.33,0.72
			c0.77,0.23,1.54,0.45,2.29,0.68c1.43,0.42,2.84,0.84,4.19,1.25c0.06,4.35,0.1,7.4,0.16,11.79c-1.72-0.24-3.43-0.49-4.98-0.7
			c-1.56-0.22-2.96-0.42-4.06-0.61c0.03,4.72,0.25,10.88,0.28,15.67c0.95-0.01,1.89-0.01,2.81-0.02c0.93-0.01,1.84-0.01,2.73-0.01
			c0.85,0,1.69-0.01,2.51-0.02c0.82-0.01,1.62-0.01,2.41-0.02c0.07,4.57,0.14,9.21,0.21,13.8c-2.95,0.57-5.95,1.12-8.97,1.64
			C151.31,159.34,148.23,159.85,145.12,160.38z"/>
		<path class="st55" d="M145.12,160.38c0-6.73-0.01-13.41-0.01-20c0-6.53-0.01-12.98-0.02-19.38c0-3.17,0-6.33-0.01-9.46
			c0-3.12-0.01-6.23-0.01-9.32c0-3.07,0-6.12-0.01-9.17c0-3.02,0-6.03,0-9.07c0.81,0.51,1.61,1,2.4,1.45
			c0.8,0.46,1.59,0.94,2.37,1.39c0.78,0.45,1.57,0.89,2.32,1.33c0.77,0.44,1.53,0.88,2.28,1.31c1.36,0.8,2.68,1.56,3.97,2.31
			c1.31,0.77,2.59,1.5,3.83,2.23c0.06,4.14,0.13,8.3,0.19,12.49c-0.76-0.32-1.54-0.66-2.33-0.99c-0.79-0.33-1.6-0.68-2.41-1.04
			c-0.85-0.37-1.72-0.77-2.62-1.14c-0.88-0.37-1.77-0.76-2.68-1.15c0.03,4.15,0.06,8.31,0.09,12.5c0.79,0.25,1.57,0.5,2.33,0.72
			c0.77,0.23,1.54,0.45,2.29,0.68c1.43,0.42,2.84,0.84,4.19,1.25c0.06,4.35,0.1,7.4,0.16,11.79c-1.72-0.24-3.43-0.49-4.98-0.7
			c-1.56-0.22-2.96-0.42-4.06-0.61c0.03,4.72,0.25,10.88,0.28,15.67c0.95-0.01,1.89-0.01,2.81-0.02c0.93-0.01,1.84-0.01,2.73-0.01
			c0.85,0,1.69-0.01,2.51-0.02c0.82-0.01,1.62-0.01,2.41-0.02c0.07,4.57,0.14,9.21,0.21,13.8c-2.95,0.57-5.95,1.12-8.97,1.64
			C151.31,159.34,148.23,159.85,145.12,160.38"/>
		<path class="st52" d="M94.46,166.12c0-9.62,0-19.24,0-28.83c0-9.53,0-19.07,0-28.57c0-9.5,0-18.97,0-28.41c0-9.4,0-18.8,0-28.18
			c2.99,1.92,5.89,3.75,8.67,5.51c2.68,1.69,5.28,3.34,7.78,4.92c0.01,6.17,0.03,12.33,0.04,18.51c0.01,6.19,0.03,12.39,0.04,18.61
			c3.92,1.43,7.62,2.79,11.12,4.06c3.32,1.21,6.48,2.37,9.48,3.47c-0.03-5.3-0.05-10.6-0.08-15.87c-0.03-5.27-0.05-10.55-0.08-15.8
			c1.75,1.09,3.44,2.17,5.09,3.22c1.6,1.02,3.16,2,4.69,2.96c0.04,6.57,0.08,13.16,0.12,19.76c0.04,6.6,0.08,13.23,0.13,19.87
			c0.04,6.64,0.08,13.29,0.13,19.96c0.05,6.67,0.09,13.37,0.13,20.06c-1.52,0.16-3.09,0.32-4.71,0.48
			c-1.66,0.16-3.36,0.33-5.13,0.51c-0.03-6.11-0.06-12.23-0.09-18.35c-0.03-6.1-0.06-12.2-0.09-18.29c-3.01-0.63-6.17-1.3-9.5-1.99
			c-3.51-0.73-7.22-1.52-11.15-2.35c0.02,7.15,0.03,14.33,0.05,21.5c0.02,7.16,0.04,14.38,0.05,21.56
			c-2.53,0.26-5.16,0.53-7.88,0.79C100.45,165.52,97.5,165.82,94.46,166.12"/>
		<path class="st53" d="M61.52,57.9l2.74,2.18l-0.05,3.49c3.16-2.22,6.38-4.11,9.67-5.65c1.25-0.58,2.5-1.12,3.77-1.59
			c-2.37-1.05-4.85-2.55-7.24-3.77c-3.5-1.79-5.88-3.03-7.3-3.79c-1.8-0.96-2.66-1.12-4.36,0c-0.6,0.33-1.73,0.73-2.66,1.22
			l-13.75,7.26c-0.07,0.05-0.2,0.17-0.3,0.26l-1.14,31.33c1.29-2.15,2.69-4.26,4.2-6.34c0.09-0.13,0.19-0.25,0.28-0.38l-0.2-15.1
			l2.74-2.09l-0.19,14.13c1.03-1.27,2.09-2.52,3.19-3.73l-0.17-12.79l2.74-2.18l-0.16,12.42c0.96-0.97,1.95-1.92,2.97-2.85
			l-0.14-11.47l2.74-2.23l-0.14,11.54c0.18-0.15,0.36-0.3,0.54-0.45c0.77-0.63,1.54-1.25,2.32-1.84L61.52,57.9z"/>
		<path class="st53" d="M82.22,24.24c-0.16,10.24-0.33,18.74-0.51,25.71h6.88l-0.64-19.32l2.74-0.86l-0.65,20.18h0.62l3.14,0.31
			l-0.28-22.97l2.74-2.26l-0.31,24.95l3.3,0.48l-0.33-27.39l2.74-2.3l-0.36,29.99l3.32,0.48l-0.35-28.75l2.74,2.26l-0.34,26.79
			l3.49,0.51l-0.32-24.82l2.74,2.16l-0.3,22.97l7.11,1.04l-0.02-29c-2.93-1.82-5.99-3.2-9.12-4.96c-11.66-6.56-7.8-6-18.88,0.01
			C88.74,20.89,84.81,23.06,82.22,24.24"/>
		<path class="st53" d="M88.59,48.77h-6.88c-0.06,2.25-0.12,4.34-0.18,6.28c2.38-0.68,4.79-1.17,7.22-1.46L88.59,48.77z"/>
		<path class="st53" d="M95.97,48.8l-0.05,4.26c1.16,0.74,2.3,1.47,3.43,2.18l-0.08-5.98L95.97,48.8z"/>
		<path class="st53" d="M101.32,49.55l-0.08,6.89c0.64,0.4,1.27,0.8,1.9,1.2l1.62,1.02l-0.11-8.64L101.32,49.55z"/>
		<polygon class="st53" points="106.7,50.31 106.58,59.81 110.34,62.19 110.19,50.8 		"/>
		<path class="st53" d="M112.31,51.1l-0.66,48.81c2.63,0.96,5.15,1.88,7.58,2.77c0.03-10.68,0.21-22.51,0.21-27.38l-0.02-23.2
			L112.31,51.1z"/>
		<path class="st53" d="M94.46,98.67l-0.65-49.91h-3.77l-0.16,4.64c0.21,0.17,0.84-0.29,0.78,0.5v97.79
			c1.25-0.09,2.52-0.17,3.8-0.24v-14.17v-28.57V98.67z"/>
		<path class="st53" d="M90.67,151.69V53.9l-1.12,9.77l-0.22,6.54l-0.12-3.57l-2.39,20.8c-5.03-2.54-9.81-3.59-14.34-3.27
			c-0.97,0.07-1.94,0.2-2.9,0.4l-0.83,60.81c1.34-0.6,2.7-1.3,4.1-2.11c5.16-2.99,10.76-7.45,16.92-13.61l-1.81,22.24
			C88.85,151.82,89.76,151.76,90.67,151.69"/>
		<path class="st53" d="M68.21,145.62l-0.8-60.5c-1.17,0.35-2.32,0.79-3.48,1.31l-0.79,60.92
			C64.78,146.94,66.47,146.37,68.21,145.62"/>
		<path class="st53" d="M62.66,147.46L61.9,87.44c-0.64,0.35-1.27,0.72-1.91,1.12c-0.51,0.32-1,0.65-1.49,0.99l-0.72,58.55
			c0.59-0.02,1.19-0.06,1.82-0.12C60.6,147.87,61.62,147.7,62.66,147.46"/>
		<path class="st53" d="M57.3,148.11l-0.72-57.12c-1.24,0.99-2.41,2.04-3.5,3.16l-0.68,53.28C53.89,147.89,55.52,148.11,57.3,148.11
			"/>
		<path class="st53" d="M51.86,147.27L51.2,96.22c-1.38,1.63-2.63,3.39-3.76,5.27l-0.57,42.7
			C48.32,145.58,49.97,146.61,51.86,147.27"/>
		<path class="st53" d="M46.23,143.52l-0.53-38.85c-0.09,0.19-0.19,0.38-0.28,0.57c-3.16,6.55-4.66,13.32-4.64,20.6
			c0.02,7.23,1.51,12.73,4.61,16.69C45.66,142.88,45.94,143.21,46.23,143.52"/>
		<path class="st53" d="M122.39,72.67c-0.47,10.64-0.11,20.94,0.03,31.18l5.79,2.12l-0.76-28.46l2.74-1.06l-0.78,29.96l2.19,0.8
			l-0.08-15.87l-0.08-15.8c0.55,0.34,1.09,0.68,1.62,1.02l-0.03-2.27l2.74-1.96l-0.08,5.9c0.28,0.18,0.57,0.36,0.85,0.54l2.03,1.28
			l-0.13-9.43l2.74-2.01L141,81.59l0.22,0.14l0,0.79h2.74l-0.18-12.4l2.74,1.96l-0.15,10.43h2.51V67.24
			c-4.06-2.07-7.71-3.87-7.75-3.87C139.68,63.28,126.18,71.23,122.39,72.67"/>
		<path class="st53" d="M152.11,76.12l-0.1,7.21l7.67,0c0.03-3.35,0.04-7.33,0.01-10.21c-0.87-0.75-6.11-3.5-10.8-5.89v15.28h0.6
			l-0.12-8.28L152.11,76.12z"/>
		<path class="st53" d="M159.68,82.52h-7.67l-0.08,5.49l0.23,0.13l2.27,1.31l3.97,2.31l1.19,0.69
			C159.62,89.04,159.66,85.7,159.68,82.52"/>
		<path class="st53" d="M128.72,125.1l-6.52-1.37c-3.42-0.71-7.02-1.48-10.84-2.28l-0.12,8.51l-0.11-8.55
			c-0.03-0.01-0.05-0.01-0.08-0.02l0.05,21.5l0.02,8.08c7.24-0.02,14.23,0.22,20.71,0.69l-0.04-7.63l-0.09-18.29l-2.78-0.58
			l-0.1,3.77L128.72,125.1z"/>
		<path class="st53" d="M152.37,102.15l0.09,12.5c0.79,0.25,1.57,0.5,2.33,0.72l2.29,0.68l4.19,1.25l0.16,11.79l-4.98-0.7
			c-1.56-0.22-2.96-0.42-4.06-0.61c0.03,4.72,0.25,10.88,0.28,15.67c0.95-0.01,1.89-0.01,2.81-0.02c0.93-0.01,1.84-0.01,2.73-0.01
			l2.51-0.02l0.98-0.01v-37.21l-1.6-0.68c-0.09-0.04-0.18-0.08-0.28-0.12c-0.16,0.51-0.27,0.64-0.27-0.06c0-0.02,0-0.04,0-0.06
			c-0.61-0.26-1.24-0.54-1.87-0.81c-0.85-0.37-1.72-0.77-2.62-1.15L152.37,102.15z"/>
	</g>
</g>
</svg>
